<mxfile host="app.diagrams.net" agent="Mozilla/5.0 (Windows NT 10.0; Win64; x64) AppleWebKit/537.36 (KHTML, like Gecko) Chrome/136.0.0.0 Safari/537.36" version="27.0.5">
  <diagram name="Page-1" id="23hs8EUwEtsupkScc3u0">
    <mxGraphModel dx="2522" dy="1377" grid="1" gridSize="10" guides="1" tooltips="1" connect="1" arrows="1" fold="1" page="1" pageScale="1" pageWidth="1100" pageHeight="1700" math="0" shadow="0">
      <root>
        <mxCell id="0" />
        <mxCell id="1" parent="0" />
        <mxCell id="B2qCHiAIktYOESWins9c-1" value="&lt;h4 data-end=&quot;250&quot; data-start=&quot;220&quot;&gt;&lt;font face=&quot;Lucida Console&quot; style=&quot;font-size: 15px;&quot;&gt;&lt;span style=&quot;&quot; class=&quot;_fadeIn_m1hgl_8&quot;&gt;&amp;nbsp; Knowledge &lt;/span&gt;&lt;span style=&quot;&quot; class=&quot;_fadeIn_m1hgl_8&quot;&gt;Requirements&lt;/span&gt;&lt;/font&gt;&lt;/h4&gt;&lt;ul data-end=&quot;471&quot; data-start=&quot;251&quot;&gt;&lt;li data-end=&quot;275&quot; data-start=&quot;251&quot;&gt;&lt;p data-end=&quot;275&quot; data-start=&quot;253&quot;&gt;&lt;font face=&quot;Lucida Console&quot; style=&quot;font-size: 15px;&quot;&gt;&lt;span class=&quot;_fadeIn_m1hgl_8&quot;&gt;QR &lt;/span&gt;&lt;span class=&quot;_fadeIn_m1hgl_8&quot;&gt;Code &lt;/span&gt;&lt;span class=&quot;_fadeIn_m1hgl_8&quot;&gt;Technologies&lt;/span&gt;&lt;/font&gt;&lt;/p&gt;&lt;/li&gt;&lt;li data-end=&quot;313&quot; data-start=&quot;276&quot;&gt;&lt;p data-end=&quot;313&quot; data-start=&quot;278&quot;&gt;&lt;font face=&quot;Lucida Console&quot; style=&quot;font-size: 15px;&quot;&gt;&lt;span class=&quot;_fadeIn_m1hgl_8&quot;&gt;Programming (&lt;/span&gt;&lt;span class=&quot;_fadeIn_m1hgl_8&quot;&gt;JavaScript, &lt;/span&gt;&lt;span class=&quot;_fadeIn_m1hgl_8&quot;&gt;Node.&lt;/span&gt;&lt;span class=&quot;_fadeIn_m1hgl_8&quot;&gt;js)&lt;/span&gt;&lt;/font&gt;&lt;/p&gt;&lt;/li&gt;&lt;li data-end=&quot;334&quot; data-start=&quot;314&quot;&gt;&lt;p data-end=&quot;334&quot; data-start=&quot;316&quot;&gt;&lt;font face=&quot;Lucida Console&quot; style=&quot;font-size: 15px;&quot;&gt;&lt;span class=&quot;_fadeIn_m1hgl_8&quot;&gt;Interface &lt;/span&gt;&lt;span class=&quot;_fadeIn_m1hgl_8&quot;&gt;Design&lt;/span&gt;&lt;/font&gt;&lt;/p&gt;&lt;/li&gt;&lt;li data-end=&quot;359&quot; data-start=&quot;335&quot;&gt;&lt;p data-end=&quot;359&quot; data-start=&quot;337&quot;&gt;&lt;font face=&quot;Lucida Console&quot; style=&quot;font-size: 15px;&quot;&gt;&lt;span class=&quot;_fadeIn_m1hgl_8&quot;&gt;System &lt;/span&gt;&lt;span class=&quot;_fadeIn_m1hgl_8&quot;&gt;Documentation&lt;/span&gt;&lt;/font&gt;&lt;/p&gt;&lt;/li&gt;&lt;li data-end=&quot;399&quot; data-start=&quot;360&quot;&gt;&lt;p data-end=&quot;399&quot; data-start=&quot;362&quot;&gt;&lt;font face=&quot;Lucida Console&quot; style=&quot;font-size: 15px;&quot;&gt;&lt;span class=&quot;_fadeIn_m1hgl_8&quot;&gt;Leadership &lt;/span&gt;&lt;span class=&quot;_fadeIn_m1hgl_8&quot;&gt;and &lt;/span&gt;&lt;span class=&quot;_fadeIn_m1hgl_8&quot;&gt;Project &lt;/span&gt;&lt;span class=&quot;_fadeIn_m1hgl_8&quot;&gt;Coordination&lt;/span&gt;&lt;/font&gt;&lt;/p&gt;&lt;/li&gt;&lt;li data-end=&quot;471&quot; data-start=&quot;400&quot;&gt;&lt;p data-end=&quot;471&quot; data-start=&quot;402&quot;&gt;&lt;font face=&quot;Lucida Console&quot; style=&quot;font-size: 15px;&quot;&gt;&lt;span class=&quot;_fadeIn_m1hgl_8&quot;&gt;Existing &lt;/span&gt;&lt;span class=&quot;_fadeIn_m1hgl_8&quot;&gt;Scholarship &lt;/span&gt;&lt;span class=&quot;_fadeIn_m1hgl_8&quot;&gt;Processes (&lt;/span&gt;&lt;span class=&quot;_fadeIn_m1hgl_8&quot;&gt;manual &lt;/span&gt;&lt;span class=&quot;_fadeIn_m1hgl_8&quot;&gt;and &lt;/span&gt;&lt;span class=&quot;_fadeIn_m1hgl_8&quot;&gt;current &lt;/span&gt;&lt;span class=&quot;_fadeIn_m1hgl_8&quot;&gt;system &lt;/span&gt;&lt;span class=&quot;_fadeIn_m1hgl_8&quot;&gt;analysis)&lt;br&gt;&lt;br&gt;&lt;/span&gt;&lt;/font&gt;&lt;/p&gt;&lt;/li&gt;&lt;/ul&gt;&lt;h4 data-end=&quot;502&quot; data-start=&quot;473&quot;&gt;&lt;font face=&quot;Lucida Console&quot; style=&quot;font-size: 15px;&quot;&gt;&lt;span class=&quot;_fadeIn_m1hgl_8&quot;&gt;&amp;nbsp; Hardware &lt;/span&gt;&lt;span class=&quot;_fadeIn_m1hgl_8&quot;&gt;Requirements&lt;/span&gt;&lt;/font&gt;&lt;/h4&gt;&lt;ul data-end=&quot;608&quot; data-start=&quot;503&quot;&gt;&lt;li data-end=&quot;556&quot; data-start=&quot;503&quot;&gt;&lt;p data-end=&quot;556&quot; data-start=&quot;505&quot;&gt;&lt;font face=&quot;Lucida Console&quot; style=&quot;font-size: 15px;&quot;&gt;&lt;span class=&quot;_fadeIn_m1hgl_8&quot;&gt;Intel &lt;/span&gt;&lt;span class=&quot;_fadeIn_m1hgl_8&quot;&gt;Core &lt;/span&gt;&lt;span class=&quot;_fadeIn_m1hgl_8&quot;&gt;i5 / &lt;/span&gt;&lt;span class=&quot;_fadeIn_m1hgl_8&quot;&gt;AMD &lt;/span&gt;&lt;span class=&quot;_fadeIn_m1hgl_8&quot;&gt;Ryzen &lt;/span&gt;&lt;span class=&quot;_fadeIn_m1hgl_8&quot;&gt;5 &lt;/span&gt;&lt;span class=&quot;_fadeIn_m1hgl_8&quot;&gt;processor (&lt;/span&gt;&lt;span class=&quot;_fadeIn_m1hgl_8&quot;&gt;or &lt;/span&gt;&lt;span class=&quot;_fadeIn_m1hgl_8&quot;&gt;higher)&lt;/span&gt;&lt;/font&gt;&lt;/p&gt;&lt;/li&gt;&lt;li data-end=&quot;576&quot; data-start=&quot;557&quot;&gt;&lt;p data-end=&quot;576&quot; data-start=&quot;559&quot;&gt;&lt;font face=&quot;Lucida Console&quot; style=&quot;font-size: 15px;&quot;&gt;&lt;span class=&quot;_fadeIn_m1hgl_8&quot;&gt;Minimum &lt;/span&gt;&lt;span class=&quot;_fadeIn_m1hgl_8&quot;&gt;8GB &lt;/span&gt;&lt;span class=&quot;_fadeIn_m1hgl_8&quot;&gt;RAM&lt;/span&gt;&lt;/font&gt;&lt;/p&gt;&lt;/li&gt;&lt;li data-end=&quot;608&quot; data-start=&quot;577&quot;&gt;&lt;p data-end=&quot;608&quot; data-start=&quot;579&quot;&gt;&lt;font face=&quot;Lucida Console&quot; style=&quot;font-size: 15px;&quot;&gt;&lt;span class=&quot;_fadeIn_m1hgl_8&quot;&gt;256GB &lt;/span&gt;&lt;span class=&quot;_fadeIn_m1hgl_8&quot;&gt;SSD + &lt;/span&gt;&lt;span class=&quot;_fadeIn_m1hgl_8&quot;&gt;1TB &lt;/span&gt;&lt;span class=&quot;_fadeIn_m1hgl_8&quot;&gt;HDD &lt;/span&gt;&lt;span class=&quot;_fadeIn_m1hgl_8&quot;&gt;storage&lt;br&gt;&lt;br&gt;&lt;/span&gt;&lt;/font&gt;&lt;/p&gt;&lt;/li&gt;&lt;/ul&gt;&lt;h4 data-end=&quot;639&quot; data-start=&quot;610&quot;&gt;&lt;font face=&quot;Lucida Console&quot; style=&quot;font-size: 15px;&quot;&gt;&lt;span class=&quot;_fadeIn_m1hgl_8&quot;&gt;&amp;nbsp; Software &lt;/span&gt;&lt;span class=&quot;_fadeIn_m1hgl_8&quot;&gt;Requirements&lt;/span&gt;&lt;/font&gt;&lt;/h4&gt;&lt;ul data-end=&quot;836&quot; data-start=&quot;640&quot;&gt;&lt;li data-end=&quot;682&quot; data-start=&quot;640&quot;&gt;&lt;p data-end=&quot;682&quot; data-start=&quot;642&quot;&gt;&lt;font face=&quot;Lucida Console&quot; style=&quot;font-size: 15px;&quot;&gt;&lt;strong data-end=&quot;663&quot; data-start=&quot;642&quot;&gt;&lt;span class=&quot;_fadeIn_m1hgl_8&quot;&gt;Operating &lt;/span&gt;&lt;span class=&quot;_fadeIn_m1hgl_8&quot;&gt;System:&lt;/span&gt;&lt;/strong&gt;&lt;span class=&quot;_fadeIn_m1hgl_8&quot;&gt; &lt;/span&gt;&lt;span class=&quot;_fadeIn_m1hgl_8&quot;&gt;Windows &lt;/span&gt;&lt;span class=&quot;_fadeIn_m1hgl_8&quot;&gt;or &lt;/span&gt;&lt;span class=&quot;_fadeIn_m1hgl_8&quot;&gt;Linux&lt;/span&gt;&lt;/font&gt;&lt;/p&gt;&lt;/li&gt;&lt;li data-end=&quot;836&quot; data-start=&quot;683&quot;&gt;&lt;p data-end=&quot;709&quot; data-start=&quot;685&quot;&gt;&lt;strong data-end=&quot;707&quot; data-start=&quot;685&quot;&gt;&lt;font face=&quot;Lucida Console&quot; style=&quot;font-size: 15px;&quot;&gt;&lt;span class=&quot;_fadeIn_m1hgl_8&quot;&gt;Development &lt;/span&gt;&lt;span class=&quot;_fadeIn_m1hgl_8&quot;&gt;Tools:&lt;/span&gt;&lt;/font&gt;&lt;/strong&gt;&lt;/p&gt;&lt;ul data-end=&quot;836&quot; data-start=&quot;712&quot;&gt;&lt;li data-end=&quot;753&quot; data-start=&quot;712&quot;&gt;&lt;p data-end=&quot;753&quot; data-start=&quot;714&quot;&gt;&lt;font face=&quot;Lucida Console&quot; style=&quot;font-size: 15px;&quot;&gt;&lt;span class=&quot;_fadeIn_m1hgl_8&quot;&gt;Visual &lt;/span&gt;&lt;span class=&quot;_fadeIn_m1hgl_8&quot;&gt;Studio &lt;/span&gt;&lt;span class=&quot;_fadeIn_m1hgl_8&quot;&gt;Code (&lt;/span&gt;&lt;span class=&quot;_fadeIn_m1hgl_8&quot;&gt;v1.99.3 &lt;/span&gt;&lt;span class=&quot;_fadeIn_m1hgl_8&quot;&gt;or &lt;/span&gt;&lt;span class=&quot;_fadeIn_m1hgl_8&quot;&gt;above)&lt;/span&gt;&lt;/font&gt;&lt;/p&gt;&lt;/li&gt;&lt;li data-end=&quot;794&quot; data-start=&quot;756&quot;&gt;&lt;p data-end=&quot;794&quot; data-start=&quot;758&quot;&gt;&lt;font face=&quot;Lucida Console&quot; style=&quot;font-size: 15px;&quot;&gt;&lt;span class=&quot;_fadeIn_m1hgl_8&quot;&gt;MySQL &lt;/span&gt;&lt;span class=&quot;_fadeIn_m1hgl_8&quot;&gt;Workbench (&lt;/span&gt;&lt;span class=&quot;_fadeIn_m1hgl_8&quot;&gt;v8.0 &lt;/span&gt;&lt;span class=&quot;_fadeIn_m1hgl_8&quot;&gt;CE &lt;/span&gt;&lt;span class=&quot;_fadeIn_m1hgl_8&quot;&gt;or &lt;/span&gt;&lt;span class=&quot;_fadeIn_m1hgl_8&quot;&gt;above)&lt;/span&gt;&lt;/font&gt;&lt;/p&gt;&lt;/li&gt;&lt;li data-end=&quot;836&quot; data-start=&quot;797&quot;&gt;&lt;p data-end=&quot;836&quot; data-start=&quot;799&quot;&gt;&lt;font face=&quot;Lucida Console&quot; style=&quot;font-size: 15px;&quot;&gt;&lt;span class=&quot;_fadeIn_m1hgl_8&quot;&gt;Node.&lt;/span&gt;&lt;span class=&quot;_fadeIn_m1hgl_8&quot;&gt;js &lt;/span&gt;&lt;span class=&quot;_fadeIn_m1hgl_8&quot;&gt;runtime &lt;/span&gt;&lt;span class=&quot;_fadeIn_m1hgl_8&quot;&gt;and &lt;/span&gt;&lt;span class=&quot;_fadeIn_m1hgl_8&quot;&gt;package &lt;/span&gt;&lt;span class=&quot;_fadeIn_m1hgl_8&quot;&gt;manager&lt;br&gt;&lt;br&gt;&lt;/span&gt;&lt;/font&gt;&lt;/p&gt;&lt;/li&gt;&lt;/ul&gt;&lt;/li&gt;&lt;/ul&gt;&lt;h4 data-end=&quot;869&quot; data-start=&quot;838&quot;&gt;&lt;font face=&quot;Lucida Console&quot; style=&quot;font-size: 15px;&quot;&gt;&lt;span class=&quot;_fadeIn_m1hgl_8&quot;&gt;&amp;nbsp; Connection &lt;/span&gt;&lt;span class=&quot;_fadeIn_m1hgl_8&quot;&gt;Requirements&lt;/span&gt;&lt;/font&gt;&lt;/h4&gt;&lt;ul data-end=&quot;988&quot; data-start=&quot;870&quot;&gt;&lt;li data-end=&quot;936&quot; data-start=&quot;870&quot;&gt;&lt;p data-end=&quot;936&quot; data-start=&quot;872&quot;&gt;&lt;font face=&quot;Lucida Console&quot; style=&quot;font-size: 15px;&quot;&gt;&lt;span class=&quot;_fadeIn_m1hgl_8&quot;&gt;Fiber-&lt;/span&gt;&lt;span class=&quot;_fadeIn_m1hgl_8&quot;&gt;optic &lt;/span&gt;&lt;span class=&quot;_fadeIn_m1hgl_8&quot;&gt;internet &lt;/span&gt;&lt;span class=&quot;_fadeIn_m1hgl_8&quot;&gt;from &lt;/span&gt;&lt;span class=&quot;_fadeIn_m1hgl_8&quot;&gt;PLDT, &lt;/span&gt;&lt;span class=&quot;_fadeIn_m1hgl_8&quot;&gt;Converge &lt;/span&gt;&lt;span class=&quot;_fadeIn_m1hgl_8&quot;&gt;ICT, &lt;/span&gt;&lt;span class=&quot;_fadeIn_m1hgl_8&quot;&gt;or &lt;/span&gt;&lt;span class=&quot;_fadeIn_m1hgl_8&quot;&gt;Globe &lt;/span&gt;&lt;span class=&quot;_fadeIn_m1hgl_8&quot;&gt;Telecom&lt;/span&gt;&lt;/font&gt;&lt;/p&gt;&lt;/li&gt;&lt;li data-end=&quot;988&quot; data-start=&quot;937&quot;&gt;&lt;p data-end=&quot;988&quot; data-start=&quot;939&quot;&gt;&lt;font face=&quot;Lucida Console&quot; style=&quot;font-size: 15px;&quot;&gt;&lt;span style=&quot;&quot; class=&quot;_fadeIn_m1hgl_8&quot;&gt;Alternatively: &lt;/span&gt;&lt;span style=&quot;&quot; class=&quot;_fadeIn_m1hgl_8&quot;&gt;Stable &lt;/span&gt;&lt;span style=&quot;&quot; class=&quot;_fadeIn_m1hgl_8&quot;&gt;4G/&lt;/span&gt;&lt;span style=&quot;&quot; class=&quot;_fadeIn_m1hgl_8&quot;&gt;5G &lt;/span&gt;&lt;span style=&quot;&quot; class=&quot;_fadeIn_m1hgl_8&quot;&gt;wireless &lt;/span&gt;&lt;span style=&quot;&quot; class=&quot;_fadeIn_m1hgl_8&quot;&gt;connection&lt;/span&gt;&lt;/font&gt;&lt;/p&gt;&lt;/li&gt;&lt;/ul&gt;" style="rounded=1;whiteSpace=wrap;html=1;align=left;arcSize=5;" vertex="1" parent="1">
          <mxGeometry x="20" y="90" width="380" height="870" as="geometry" />
        </mxCell>
        <mxCell id="B2qCHiAIktYOESWins9c-3" value="&lt;h4 data-end=&quot;250&quot; data-start=&quot;220&quot;&gt;&lt;font face=&quot;Lucida Console&quot;&gt;&lt;span style=&quot;font-size: 22px;&quot;&gt;MODIFIED WATERFALL MODEL&lt;/span&gt;&lt;/font&gt;&lt;/h4&gt;&lt;div&gt;&lt;font face=&quot;Lucida Console&quot;&gt;&lt;span style=&quot;font-size: 22px;&quot;&gt;&lt;br&gt;&lt;/span&gt;&lt;/font&gt;&lt;/div&gt;&lt;div&gt;&lt;span style=&quot;font-family: &amp;quot;Lucida Console&amp;quot;; font-size: 15px;&quot;&gt;Requirement Gathering &amp;amp; Analysis&lt;br&gt;&lt;br&gt;&lt;/span&gt;&lt;span style=&quot;font-family: &amp;quot;Lucida Console&amp;quot;; font-size: 15px;&quot;&gt;System Design&lt;/span&gt;&lt;span style=&quot;font-family: &amp;quot;Lucida Console&amp;quot;; font-size: 15px;&quot;&gt;&lt;/span&gt;&lt;font face=&quot;Lucida Console&quot;&gt;&lt;span style=&quot;font-size: 22px;&quot;&gt;&lt;/span&gt;&lt;/font&gt;&lt;/div&gt;&lt;div&gt;&lt;span style=&quot;font-family: &amp;quot;Lucida Console&amp;quot;; font-size: 15px;&quot;&gt;&lt;br&gt;&lt;/span&gt;&lt;/div&gt;&lt;div&gt;&lt;span style=&quot;font-family: &amp;quot;Lucida Console&amp;quot;; font-size: 15px;&quot;&gt;System Development&lt;br&gt;&lt;br&gt;&lt;/span&gt;&lt;span style=&quot;font-family: &amp;quot;Lucida Console&amp;quot;; font-size: 15px;&quot;&gt;System Integration &amp;amp; Testing&lt;br&gt;&lt;br&gt;&lt;/span&gt;&lt;span style=&quot;font-family: &amp;quot;Lucida Console&amp;quot;; font-size: 15px;&quot;&gt;System Implementation&lt;br&gt;&lt;br&gt;&lt;/span&gt;&lt;span style=&quot;font-family: &amp;quot;Lucida Console&amp;quot;; font-size: 15px;&quot;&gt;System Maintenance&lt;/span&gt;&lt;span style=&quot;font-family: &amp;quot;Lucida Console&amp;quot;; font-size: 15px;&quot;&gt;&lt;/span&gt;&lt;span style=&quot;font-family: &amp;quot;Lucida Console&amp;quot;; font-size: 15px;&quot;&gt;&lt;/span&gt;&lt;span style=&quot;font-family: &amp;quot;Lucida Console&amp;quot;; font-size: 15px;&quot;&gt;&lt;/span&gt;&lt;span style=&quot;font-family: &amp;quot;Lucida Console&amp;quot;; font-size: 15px;&quot;&gt;&lt;/span&gt;&lt;/div&gt;" style="rounded=1;whiteSpace=wrap;html=1;align=center;arcSize=5;" vertex="1" parent="1">
          <mxGeometry x="440" y="90" width="380" height="870" as="geometry" />
        </mxCell>
        <mxCell id="B2qCHiAIktYOESWins9c-4" value="&lt;h4 data-end=&quot;250&quot; data-start=&quot;220&quot;&gt;&lt;font face=&quot;Lucida Console&quot; style=&quot;font-size: 22px;&quot;&gt;CLOUD-BASED SCHOLARSHIP MANAGEMENT AND MONITORING SYSTEM FOR GRC MLALAF SCHOLARSHIP&lt;/font&gt;&lt;/h4&gt;" style="rounded=1;whiteSpace=wrap;html=1;align=center;arcSize=5;" vertex="1" parent="1">
          <mxGeometry x="880" y="90" width="380" height="870" as="geometry" />
        </mxCell>
        <mxCell id="B2qCHiAIktYOESWins9c-5" value="&lt;b&gt;INPUT&lt;/b&gt;" style="rounded=0;whiteSpace=wrap;html=1;fontFamily=Lucida Console;fontSize=25;" vertex="1" parent="1">
          <mxGeometry x="20" y="10" width="380" height="60" as="geometry" />
        </mxCell>
        <mxCell id="B2qCHiAIktYOESWins9c-6" value="&lt;font style=&quot;font-size: 25px;&quot; face=&quot;Lucida Console&quot;&gt;&lt;b style=&quot;&quot;&gt;PROCESS&lt;/b&gt;&lt;/font&gt;" style="rounded=0;whiteSpace=wrap;html=1;" vertex="1" parent="1">
          <mxGeometry x="430" y="10" width="380" height="60" as="geometry" />
        </mxCell>
        <mxCell id="B2qCHiAIktYOESWins9c-7" value="&lt;font style=&quot;font-size: 25px;&quot; face=&quot;Lucida Console&quot;&gt;OUTPUT&lt;/font&gt;" style="rounded=0;whiteSpace=wrap;html=1;" vertex="1" parent="1">
          <mxGeometry x="880" y="10" width="380" height="60" as="geometry" />
        </mxCell>
        <mxCell id="B2qCHiAIktYOESWins9c-9" value="&lt;font face=&quot;Lucida Console&quot;&gt;&lt;span style=&quot;font-size: 25px;&quot;&gt;&lt;b&gt;FEEDBACK&lt;/b&gt;&lt;/span&gt;&lt;/font&gt;" style="rounded=0;whiteSpace=wrap;html=1;" vertex="1" parent="1">
          <mxGeometry x="440" y="1000" width="380" height="60" as="geometry" />
        </mxCell>
        <mxCell id="B2qCHiAIktYOESWins9c-10" value="" style="shape=flexArrow;endArrow=classic;html=1;rounded=1;width=25;fillColor=light-dark(#7d7d7d, #ededed);" edge="1" parent="1">
          <mxGeometry width="50" height="50" relative="1" as="geometry">
            <mxPoint x="420" y="1030" as="sourcePoint" />
            <mxPoint x="200" y="970" as="targetPoint" />
            <Array as="points">
              <mxPoint x="200" y="1030" />
            </Array>
          </mxGeometry>
        </mxCell>
        <mxCell id="B2qCHiAIktYOESWins9c-11" value="" style="shape=flexArrow;endArrow=classic;html=1;rounded=1;width=25;fillColor=light-dark(#7d7d7d, #ededed);" edge="1" parent="1">
          <mxGeometry width="50" height="50" relative="1" as="geometry">
            <mxPoint x="1070" y="970" as="sourcePoint" />
            <mxPoint x="850" y="1030" as="targetPoint" />
            <Array as="points">
              <mxPoint x="1070" y="1030" />
            </Array>
          </mxGeometry>
        </mxCell>
        <mxCell id="B2qCHiAIktYOESWins9c-13" value="" style="shape=flexArrow;endArrow=classic;html=1;rounded=0;width=30;entryX=0.132;entryY=0.563;entryDx=0;entryDy=0;entryPerimeter=0;fillColor=light-dark(#7d7d7d, #ededed);" edge="1" parent="1">
          <mxGeometry width="50" height="50" relative="1" as="geometry">
            <mxPoint x="380" y="524.77" as="sourcePoint" />
            <mxPoint x="470.15999999999985" y="524.5799999999999" as="targetPoint" />
          </mxGeometry>
        </mxCell>
        <mxCell id="B2qCHiAIktYOESWins9c-15" value="" style="shape=flexArrow;endArrow=classic;html=1;rounded=0;width=30;entryX=0.132;entryY=0.563;entryDx=0;entryDy=0;entryPerimeter=0;fillColor=light-dark(#7d7d7d, #ededed);" edge="1" parent="1">
          <mxGeometry width="50" height="50" relative="1" as="geometry">
            <mxPoint x="800" y="524.8199999999999" as="sourcePoint" />
            <mxPoint x="890.1599999999999" y="524.6299999999999" as="targetPoint" />
          </mxGeometry>
        </mxCell>
      </root>
    </mxGraphModel>
  </diagram>
</mxfile>
